<?xml version="1.0" encoding="utf-8"?>
<svg xmlns="http://www.w3.org/2000/svg" viewBox="0 0 48 48" width="144" height="144">
  <path d="M34.5 4C29.259495 4 25.132813 8.3220648 25.132812 13.5C25.132812 14.664753 25.466066 16.00919 26.126953 17.617188L24.222656 20.714844 A 1.50015 1.50015 0 0 0 25.5 23L34.253906 23 A 1.50015 1.50015 0 0 0 34.822266 22.986328C36.962376 22.914897 39.156816 22.138708 40.898438 20.615234C42.72737 19.015384 44 16.547359 44 13.5C44 8.2107764 39.943945 4 34.5 4 z M 34.5 7C38.490055 7 41 9.6472236 41 13.5C41 15.746641 40.152691 17.278819 38.921875 18.355469C38.088583 19.084387 37.05339 19.574186 36 19.818359L36 15.5 A 1.50015 1.50015 0 0 0 34.476562 13.978516 A 1.50015 1.50015 0 0 0 33 15.5L33 20L28.181641 20L29.060547 18.572266 A 1.50015 1.50015 0 0 0 29.140625 17.150391C28.306499 15.370054 28.132813 14.418153 28.132812 13.5C28.132812 9.8879352 30.888505 7 34.5 7 z M 34.5 9 A 1.5 1.5 0 0 0 34.5 12 A 1.5 1.5 0 0 0 34.5 9 z M 15 10C11.151772 10 8 13.151775 8 17C8 20.848225 11.151772 24 15 24C18.848228 24 22 20.848225 22 17C22 13.151775 18.848228 10 15 10 z M 15 13C17.226909 13 19 14.773093 19 17C19 19.226907 17.226909 21 15 21C12.773091 21 11 19.226907 11 17C11 14.773093 12.773091 13 15 13 z M 7.734375 26C5.6888487 26 4 27.690002 4 29.734375L4 33C4 39.057558 8.9424416 44 15 44C21.057558 44 26 39.057558 26 33L26 29.734375C26 27.688849 24.309998 26 22.265625 26L7.734375 26 z M 7.734375 29L22.265625 29C22.689252 29 23 29.309901 23 29.734375L23 33C23 37.436442 19.436442 41 15 41C10.563558 41 7 37.436442 7 33L7 29.734375C7 29.310748 7.3099013 29 7.734375 29 z" fill="#FFFFFF" />
</svg>